Coordinates
version=1
nRows=49
nColumns=12
inDegrees=yes

Units are S.I. units (second, meters, Newtons, ...)
Angles are in degrees

endheader
time	SC_y	SC_z	SC_x	AC_y	AC_z	AC_x	GH_y	GH_z	GH_yy	EL_x	PS_y
       0.0               -51.6           36.6          1.389          32.27       -0.07296          11.81         -97.36           64.4          134.3          95.73           90.7
    0.0333              -51.59           36.6          1.392          32.28       -0.07427          11.81         -97.36          64.39          134.3          95.73           90.7
   0.06659              -51.59          36.59          1.395          32.28       -0.07567          11.81         -97.35          64.39          134.2          95.72          90.69
   0.09989              -51.58          36.59          1.397          32.29       -0.07716          11.81         -97.34          64.39          134.2          95.72          90.68
    0.1332              -51.58          36.58            1.4           32.3       -0.07874          11.81         -97.33          64.38          134.2          95.71          90.68
    0.1665              -51.57          36.58          1.404           32.3       -0.08043          11.81         -97.32          64.38          134.2           95.7          90.67
    0.1998              -51.56          36.58          1.407          32.31       -0.08223          11.81         -97.31          64.37          134.1          95.69          90.67
    0.2331              -51.56          36.57          1.411          32.32       -0.08416           11.8         -97.29          64.37          134.1          95.68          90.66
    0.2664              -51.55          36.56          1.415          32.32       -0.08622           11.8         -97.28          64.36          134.1          95.67          90.65
    0.2997              -51.54          36.56          1.419          32.33       -0.08843           11.8         -97.27          64.35          134.0          95.66          90.64
     0.333              -51.53          36.55          1.423          32.34       -0.09081           11.8         -97.25          64.35          134.0          95.65          90.63
    0.3663              -51.52          36.54          1.428          32.35       -0.09337           11.8         -97.24          64.34          134.0          95.64          90.62
    0.3996              -51.51          36.54          1.433          32.36       -0.09612           11.8         -97.22          64.33          133.9          95.63          90.61
    0.4329               -51.5          36.53          1.439          32.38        -0.0991           11.8          -97.2          64.32          133.9          95.61           90.6
    0.4662              -51.49          36.52          1.445          32.39        -0.1023           11.8         -97.18          64.31          133.8           95.6          90.59
    0.4995              -51.48          36.51          1.452           32.4        -0.1058          11.79         -97.16           64.3          133.8          95.58          90.58
    0.5327              -51.46           36.5          1.459          32.42        -0.1096          11.79         -97.13          64.29          133.7          95.57          90.56
     0.566              -51.45          36.49          1.467          32.44        -0.1138          11.79         -97.11          64.28          133.7          95.55          90.55
    0.5993              -51.43          36.47          1.475          32.45        -0.1183          11.79         -97.08          64.27          133.6          95.53          90.53
    0.6326              -51.41          36.46          1.485          32.47        -0.1232          11.79         -97.05          64.26          133.5           95.5          90.51
    0.6659              -51.39          36.44          1.495          32.49        -0.1287          11.78         -97.02          64.24          133.5          95.48          90.49
    0.6992              -51.37          36.43          1.506          32.52        -0.1346          11.78         -96.98          64.22          133.4          95.45          90.47
    0.7325              -51.34          36.41          1.519          32.55        -0.1413          11.78         -96.94           64.2          133.3          95.42          90.44
    0.7658              -51.32          36.39          1.533          32.57        -0.1486          11.77         -96.89          64.18          133.2          95.39          90.42
    0.7991              -51.29          36.37          1.548          32.61        -0.1567          11.77         -96.84          64.16          133.1          95.35          90.39
    0.8324              -51.25          36.34          1.565          32.64        -0.1658          11.76         -96.78          64.14          132.9          95.31          90.35
    0.8657              -51.21          36.31          1.584          32.68         -0.176          11.76         -96.72          64.11          132.8          95.26          90.31
     0.899              -51.17          36.28          1.606          32.73        -0.1874          11.75         -96.65          64.07          132.6          95.21          90.27
    0.9323              -51.12          36.24          1.631          32.78        -0.2003          11.75         -96.57          64.04          132.4          95.15          90.22
    0.9656              -51.07           36.2          1.658          32.84         -0.215          11.74         -96.47           64.0          132.2          95.08          90.17
    0.9989              -51.01          36.16           1.69          32.91        -0.2318          11.73         -96.37          63.95          132.0          95.01           90.1
     1.032              -50.94           36.1          1.726          32.98         -0.251          11.72         -96.25          63.89          131.7          94.92          90.03
     1.065              -50.85          36.04          1.769          33.07        -0.2732          11.71         -96.11          63.83          131.4          94.82          89.95
     1.099              -50.76          35.97          1.817          33.18         -0.299           11.7         -95.95          63.76          131.0           94.7          89.85
     1.132              -50.64          35.88          1.874           33.3        -0.3291          11.68         -95.76          63.67          130.6          94.56          89.74
     1.165              -50.51          35.78          1.942          33.44        -0.3647          11.66         -95.54          63.57          130.0           94.4          89.61
     1.199              -50.35          35.66          2.022          33.61         -0.407          11.64         -95.27          63.45          129.4          94.21          89.45
     1.232              -50.17          35.52          2.118          33.81        -0.4577          11.62         -94.95          63.31          128.7          93.97          89.26
     1.265              -49.94          35.35          2.234          34.06         -0.519          11.59         -94.57          63.14          127.8          93.69          89.03
     1.299              -49.66          35.14          2.376          34.36        -0.5939          11.55          -94.1          62.92          126.7          93.35          88.75
     1.332              -49.32          34.88          2.551          34.73        -0.6863           11.5         -93.52          62.66          125.4          92.93           88.4
     1.365              -48.89          34.56          2.769          35.19        -0.8016          11.45          -92.8          62.34          123.7           92.4          87.97
     1.398              -48.35          34.15          3.044          35.77        -0.9468          11.37         -91.89          61.92          121.6          91.74          87.42
     1.432              -47.66          33.63          3.393          36.51         -1.131          11.28         -90.73           61.4          119.0          90.89          86.73
     1.465              -46.78          32.97           3.84          37.45         -1.368          11.16         -89.25          60.73          115.5          89.81          85.84
     1.498              -45.65          32.11          4.414          38.66         -1.671          11.01         -87.35          59.87          111.1          88.42           84.7
     1.532              -44.21          31.03          5.148          40.21         -2.058          10.82         -84.93          58.78          105.5          86.65          83.25
     1.565               -42.4          29.66           6.07          42.16         -2.545          10.57         -81.88           57.4          98.49          84.42          81.42
     1.598               -40.2          27.99          7.193          44.54         -3.139          10.28         -78.16          55.72           89.9          81.71          79.19
